<svg width="32" height="36" viewBox="0 0 32 36" fill="none" xmlns="http://www.w3.org/2000/svg">
<path d="M12.5 29.1469L12.1484 28.7688C11.9141 28.4938 5.9375 22.3406 5.9375 18.6625C5.9375 15.4656 8.90625 12.8875 12.5 12.8875C16.0938 12.8875 19.0625 15.5 19.0625 18.6625C19.0625 22.3406 13.0859 28.5281 12.8516 28.7688L12.5 29.1469ZM12.5 13.6781C9.375 13.6781 6.875 15.9125 6.875 18.6281C6.875 21.5156 11.2109 26.4313 12.5 27.8406C13.7891 26.4313 18.125 21.55 18.125 18.6281C18.125 15.9125 15.625 13.6781 12.5 13.6781Z" fill="white"/>
<path d="M12.5 20.8625C11.1328 20.8625 10 19.8657 10 18.6625C10 17.4594 11.1328 16.4625 12.5 16.4625C13.8672 16.4625 15 17.4594 15 18.6625C15 19.8657 13.8672 20.8625 12.5 20.8625ZM12.5 17.2875C11.6406 17.2875 10.9375 17.9063 10.9375 18.6625C10.9375 19.4188 11.6406 20.0375 12.5 20.0375C13.3594 20.0375 14.0625 19.4188 14.0625 18.6625C14.0625 17.9063 13.3594 17.2875 12.5 17.2875Z" fill="white"/>
</svg>
